# xmcd CD database file
#
# Track frame offsets:
#	150
#	19465
#	42475
#	58502
#	77758
#	99910
#	112198
#	135614
#	158719
#	190592
#	213797
#	234981
#	254843
#
# Disc length: 3707 seconds
#
# Revision: 0
# Processed by: cddbd v1.5.2PL0 Copyright (c) Steve Scherf et al.
# Submitted via: CDex 1.51
#
DISCID=ae0e790d
DTITLE=Voivod - War And Pain
DYEAR=1984
DGENRE=Thrash Metal
TTITLE0=Voivod
TTITLE1=Warriors Of Ice
TTITLE2=Suck Your Bone
TTITLE3=Iron Gang
TTITLE4=War And Pain
TTITLE5=Blower
TTITLE6=Live For Violence
TTITLE7=Black City
TTITLE8=Nuclear War
TTITLE9=Condemned To The Gallows (Metal Massacre 5)
TTITLE10=Voivod (To The Death - Metal Massacre 5 Sessions)
TTITLE11=Iron Gang (To The Death - Metal Massacre 5 Sessions)
TTITLE12=Condemned To The Gallows (To The Death - Metal Massacre 5 Sessions)
EXTD=YEAR: 1984
EXTT0=
EXTT1=
EXTT2=
EXTT3=
EXTT4=
EXTT5=
EXTT6=
EXTT7=
EXTT8=
EXTT9=
EXTT10=
EXTT11=
EXTT12=
PLAYORDER=
